<?xml version="1.0" standalone="no"?>
<!DOCTYPE svg PUBLIC "-//W3C//DTD SVG 20010904//EN"
 "http://www.w3.org/TR/2001/REC-SVG-20010904/DTD/svg10.dtd">
<svg version="1.0" xmlns="http://www.w3.org/2000/svg"
 width="608.000000pt" height="608.000000pt" viewBox="0 0 608.000000 608.000000"
 preserveAspectRatio="xMidYMid meet">
<metadata>
Created by potrace 1.14, written by Peter Selinger 2001-2017
</metadata>
<g transform="translate(0.000000,608.000000) scale(0.100000,-0.100000)"
fill="#000000" stroke="none">
<path d="M445 5818 c-73 -15 -113 -38 -131 -77 -22 -44 -21 -102 2 -140 21
-35 95 -72 155 -76 24 -2 58 -6 74 -9 17 -2 59 -7 95 -11 154 -14 203 -30 270
-91 41 -37 104 -124 127 -174 37 -82 47 -108 69 -183 14 -45 29 -98 34 -117 5
-19 17 -62 26 -95 10 -33 19 -64 20 -70 1 -5 14 -41 28 -80 15 -38 26 -70 26
-70 -1 0 3 -11 8 -25 95 -255 147 -422 156 -502 1 -12 10 -41 20 -63 10 -22
26 -62 36 -90 10 -27 49 -129 88 -225 106 -266 159 -428 186 -570 2 -14 7 -32
10 -40 2 -8 7 -33 10 -55 3 -22 8 -52 11 -66 7 -37 78 -243 126 -369 23 -58
44 -114 49 -125 4 -11 15 -37 24 -58 9 -21 16 -42 16 -48 0 -6 6 -25 14 -42
15 -35 32 -87 40 -127 18 -87 38 -146 65 -196 17 -32 31 -63 31 -70 0 -7 3
-14 8 -16 16 -7 80 -156 87 -203 5 -27 9 -54 11 -60 3 -13 103 -305 111 -325
8 -20 8 -21 18 -55 4 -16 13 -36 19 -44 6 -8 10 -17 8 -20 -1 -3 7 -34 18 -68
11 -34 20 -66 20 -71 0 -5 8 -27 17 -48 9 -22 17 -41 18 -44 5 -27 34 -97 60
-150 18 -36 52 -117 75 -180 23 -63 56 -146 75 -185 18 -38 36 -89 39 -113 20
-160 71 -233 150 -218 62 12 135 120 172 256 2 8 19 70 38 138 19 68 37 135
40 150 6 34 16 73 23 92 4 8 5 19 4 24 -1 4 15 58 35 120 20 61 38 120 41 131
34 145 28 243 -26 405 -23 69 -46 134 -51 145 -22 48 -59 166 -65 206 -9 66
-14 80 -51 131 -43 61 -70 127 -90 218 -8 41 -17 82 -19 90 -13 61 -93 318
-114 365 -14 33 -78 234 -100 315 -47 177 -61 218 -107 315 -22 47 -32 81 -30
105 1 18 -3 57 -9 85 -7 27 -12 52 -12 55 -3 30 -50 176 -63 195 -4 6 -10 24
-14 40 -4 17 -31 77 -60 135 -47 93 -59 129 -82 258 -14 72 -87 359 -117 457
-6 22 -12 43 -12 47 0 3 -3 10 -7 14 -5 4 -8 15 -8 24 0 9 -19 36 -43 61 -43
43 -43 45 -45 118 -2 89 -2 90 -64 220 -41 85 -50 115 -53 167 -3 74 21 155
56 190 24 23 37 26 153 39 89 10 106 14 261 55 66 18 134 34 150 36 54 8 114
35 134 60 26 33 23 114 -4 145 -43 48 -97 61 -249 61 -78 0 -163 -3 -191 -6
-27 -4 -246 -9 -485 -11 -239 -2 -457 -6 -485 -9 -102 -11 -320 -13 -345 -3
-14 6 -90 11 -170 12 -80 2 -167 6 -195 10 -80 11 -117 12 -160 3z"/>
<path d="M3605 5822 c-56 -5 -73 -12 -103 -41 -26 -26 -29 -35 -27 -89 2 -86
38 -133 110 -146 17 -3 50 -10 75 -15 25 -6 56 -13 70 -16 44 -9 193 -35 235
-40 22 -3 67 -10 100 -16 33 -5 69 -12 80 -13 53 -9 112 -29 129 -44 39 -36
69 -117 82 -227 13 -103 9 -133 -18 -163 -32 -33 -51 -86 -64 -177 -3 -22 -22
-85 -41 -140 -19 -55 -36 -104 -37 -110 -2 -5 -6 -17 -9 -25 -10 -23 -58 -192
-63 -220 -16 -88 -28 -128 -74 -230 -29 -63 -56 -119 -60 -125 -21 -27 -36
-107 -44 -235 -1 -25 -11 -61 -21 -80 -42 -77 -81 -184 -91 -250 -3 -19 -7
-42 -9 -50 -4 -13 -9 -38 -20 -105 -10 -53 -30 -112 -44 -125 -30 -28 -79
-153 -94 -240 -3 -14 -10 -45 -17 -70 -7 -25 -13 -52 -15 -60 -2 -8 -10 -42
-18 -75 -14 -53 -21 -90 -32 -160 -4 -27 -14 -75 -20 -105 -4 -14 -8 -38 -11
-53 -3 -16 -27 -97 -54 -180 -61 -193 -89 -321 -96 -448 -6 -99 -6 -100 14
-88 12 7 19 16 16 20 -2 4 0 10 6 14 13 8 89 171 105 225 4 14 13 39 20 55 7
17 23 57 35 90 12 33 35 94 50 135 15 41 46 111 69 155 57 109 88 192 90 240
3 69 14 109 56 201 28 61 43 115 45 161 0 6 22 40 48 75 83 109 124 204 252
593 67 202 135 389 180 490 34 77 88 221 144 390 63 186 111 323 131 370 90
214 116 270 157 339 67 113 154 191 292 265 107 57 152 65 356 67 203 1 216 4
290 62 71 54 93 105 62 139 -32 35 -59 54 -82 58 -101 20 -638 24 -1123 10
-333 -9 -669 -10 -752 0 -75 8 -211 12 -260 7z"/>
</g>
</svg>
